<!DOCTYPE svg PUBLIC "-//W3C//DTD SVG 20010904//EN" "http://www.w3.org/TR/2001/REC-SVG-20010904/DTD/svg10.dtd">
<svg version="1.0" xmlns="http://www.w3.org/2000/svg" width="100px" height="100px" viewBox="0 0 1000 1000" preserveAspectRatio="xMidYMid meet">
<g id="layer101" fill="#ffb229" stroke="none">
 <path d="M188 968 c-10 -12 -18 -27 -18 -33 0 -5 14 -77 32 -158 21 -98 28 -151 22 -155 -6 -4 -59 -49 -117 -101 -110 -96 -122 -116 -94 -155 11 -15 35 -20 113 -27 54 -4 124 -11 155 -14 l56 -7 58 -134 c60 -141 75 -164 104 -164 33 0 49 25 106 160 32 74 58 136 60 138 1 1 70 8 153 15 161 14 182 22 182 67 0 23 -20 46 -115 130 -63 55 -115 104 -115 107 0 4 14 71 32 150 26 117 29 147 20 168 -15 33 -39 42 -66 25 -11 -7 -74 -45 -139 -83 l-118 -69 -135 81 c-75 44 -141 81 -147 81 -7 0 -20 -10 -29 -22z"/>
 </g>

</svg>